<svg width="30" height="30" viewBox="0 0 30 30" fill="none" xmlns="http://www.w3.org/2000/svg">
<g id="SVG" clip-path="url(#clip0_1_160)">
<g id="medal">
<path id="Path 20" d="M19.533 20.5739L20.8354 18.4219L23.1853 17.6056L23.4454 15.092L25.2136 13.3196L24.3734 10.9408L25.2136 8.56106L23.4471 6.78865L23.187 4.27503L20.8371 3.45876L19.533 1.30679L17.0697 1.60959L14.98 0.25L12.8877 1.60959L10.4253 1.30679L9.1271 3.45876L6.77725 4.27503L6.5171 6.78865L4.74469 8.56106L5.58484 10.9408L4.74469 13.3205L6.51284 15.0912L6.77298 17.6048L9.12284 18.4211L10.4253 20.573L12.8886 20.2702L14.9808 21.6298L17.0731 20.2702L19.533 20.5739ZM7.78202 10.9408C7.76398 9.98404 7.93684 9.03331 8.29049 8.14417C8.64414 7.25502 9.17149 6.44529 9.84171 5.76231C10.5119 5.07934 11.3116 4.53682 12.1939 4.16647C13.0762 3.79611 14.0235 3.60536 14.9804 3.60536C15.9373 3.60536 16.8846 3.79611 17.7669 4.16647C18.6492 4.53682 19.4489 5.07934 20.1191 5.76231C20.7893 6.44529 21.3167 7.25502 21.6703 8.14417C22.024 9.03331 22.1968 9.98404 22.1788 10.9408C22.1968 11.8975 22.024 12.8482 21.6703 13.7374C21.3167 14.6265 20.7893 15.4362 20.1191 16.1192C19.4489 16.8022 18.6492 17.3447 17.7669 17.7151C16.8846 18.0854 15.9373 18.2762 14.9804 18.2762C14.0235 18.2762 13.0762 18.0854 12.1939 17.7151C11.3116 17.3447 10.5119 16.8022 9.84171 16.1192C9.17149 15.4362 8.64414 14.6265 8.29049 13.7374C7.93684 12.8482 7.76398 11.8975 7.78202 10.9408Z" fill="#FF4605"/>
<path id="Path 21" d="M14.98 5.30974C13.8625 5.28976 12.7644 5.60285 11.8255 6.20915C10.8866 6.81544 10.1494 7.68749 9.70789 8.71421C9.26634 9.74093 9.14041 10.8758 9.34612 11.9744C9.55183 13.0729 10.0799 14.0854 10.863 14.8828C11.6461 15.6802 12.6489 16.2264 13.7436 16.4519C14.8382 16.6774 15.9752 16.5719 17.0097 16.149C18.0443 15.726 18.9295 15.0047 19.5526 14.0769C20.1757 13.1491 20.5086 12.0568 20.5088 10.9391C20.5201 9.46007 19.9445 8.03684 18.9081 6.98155C17.8716 5.92627 16.459 5.32505 14.98 5.30974Z" fill="#FF4605"/>
<path id="Path 22" d="M12.4937 22.0316L9.56381 22.3915L8.01573 19.8327L7.48946 19.6501L5.21979 26.8754L9.30623 26.6468L12.5031 29.2491L14.3846 23.2606L12.4937 22.0316Z" fill="#FF4605"/>
<path id="Path 23" d="M21.9442 19.8336L20.3961 22.3925L17.4663 22.0325L15.5753 23.2616L17.4569 29.2501L20.6537 26.6478L24.7402 26.8764L22.4705 19.6511L21.9442 19.8336Z" fill="#FF4605"/>
</g>
</g>
<defs>
<clipPath id="clip0_1_160">
<rect width="29" height="29" fill="white" transform="translate(0.47998 0.25)"/>
</clipPath>
</defs>
</svg>
