<svg width="30" height="30" viewBox="0 0 30 30" fill="none" xmlns="http://www.w3.org/2000/svg">
<g id="SVG" clip-path="url(#clip0_1_173)">
<g id="trust">
<path id="Path 271" d="M15.8192 3.05004C15.8192 2.82471 15.7297 2.60861 15.5704 2.44928C15.4111 2.28995 15.195 2.20044 14.9696 2.20044C14.7443 2.20044 14.5282 2.28995 14.3689 2.44928C14.2095 2.60861 14.12 2.82471 14.12 3.05004V6.64986C14.12 6.87519 14.2095 7.09129 14.3689 7.25062C14.5282 7.40995 14.7443 7.49946 14.9696 7.49946C15.195 7.49946 15.4111 7.40995 15.5704 7.25062C15.7297 7.09129 15.8192 6.87519 15.8192 6.64986V3.05004Z" fill="#49DF0B"/>
<path id="Path 272" d="M10.7295 8.14458C10.8896 8.30239 11.1054 8.39086 11.3302 8.39086C11.555 8.39086 11.7708 8.30239 11.931 8.14458C12.0097 8.06699 12.0723 7.97451 12.115 7.87251C12.1577 7.77052 12.1797 7.66106 12.1797 7.55049C12.1797 7.43992 12.1577 7.33046 12.115 7.22847C12.0723 7.12647 12.0097 7.03399 11.931 6.9564L10.1111 5.15374C9.95095 4.99593 9.73515 4.90747 9.51032 4.90747C9.2855 4.90747 9.0697 4.99593 8.90957 5.15374C8.8308 5.23134 8.76825 5.32382 8.72556 5.42581C8.68286 5.5278 8.66087 5.63727 8.66087 5.74784C8.66087 5.8584 8.68286 5.96787 8.72556 6.06986C8.76825 6.17185 8.8308 6.26433 8.90957 6.34193L10.7295 8.14458Z" fill="#49DF0B"/>
<path id="Path 273" d="M18.6102 8.39068C18.835 8.39113 19.0508 8.30267 19.2106 8.14458L21.0305 6.34193C21.1092 6.26433 21.1718 6.17185 21.2145 6.06986C21.2572 5.96787 21.2792 5.8584 21.2792 5.74784C21.2792 5.63727 21.2572 5.5278 21.2145 5.42581C21.1718 5.32382 21.1092 5.23134 21.0305 5.15374C20.8703 4.99593 20.6545 4.90747 20.4297 4.90747C20.2049 4.90747 19.9891 4.99593 19.829 5.15374L18.0091 6.9564C17.9302 7.03394 17.8675 7.1264 17.8248 7.2284C17.782 7.3304 17.76 7.43989 17.76 7.55049C17.76 7.66109 17.782 7.77058 17.8248 7.87258C17.8675 7.97458 17.9302 8.06704 18.0091 8.14458C18.1689 8.30259 18.3847 8.39105 18.6094 8.39068H18.6102Z" fill="#49DF0B"/>
<path id="Path 274" d="M12.5125 10.3273L12.4874 10.3485L8.81395 13.4624C8.47163 13.7516 8.03787 13.9102 7.58972 13.9099H4.95941C4.37313 13.9064 3.7919 14.0184 3.24895 14.2397C2.706 14.4609 2.21198 14.787 1.79512 15.1993C1.37826 15.6116 1.04674 16.1019 0.819503 16.6424C0.592268 17.1829 0.473776 17.7628 0.4708 18.3491L0.4708 26.4501C0.471416 26.561 0.49388 26.6708 0.53691 26.7731C0.57994 26.8753 0.642693 26.9681 0.721586 27.0462C0.800479 27.1242 0.893967 27.1859 0.996711 27.2278C1.09946 27.2697 1.20945 27.2909 1.3204 27.2903H8.59999C8.71094 27.2909 8.82093 27.2697 8.92367 27.2278C9.02642 27.1859 9.11991 27.1242 9.1988 27.0462C9.27769 26.9681 9.34044 26.8753 9.38347 26.7731C9.4265 26.6708 9.44897 26.561 9.44958 26.4501V18.7363L13.7728 15.0714C13.8816 14.9795 13.9692 14.8651 14.0293 14.7359C14.0893 14.6068 14.1206 14.4661 14.1208 14.3237V11.0962C14.1194 10.9103 14.0659 10.7286 13.9662 10.5717C13.8666 10.4148 13.7249 10.289 13.5573 10.2087C13.3896 10.1284 13.2028 10.0968 13.0181 10.1175C12.8334 10.1382 12.6582 10.2103 12.5125 10.3257V10.3273Z" fill="#49DF0B"/>
<path id="Path 275" d="M24.9814 13.9099H22.3503C21.9021 13.9102 21.4684 13.7517 21.1261 13.4624L17.4526 10.3485L17.4275 10.3273C17.2819 10.2122 17.1069 10.1403 16.9225 10.1197C16.738 10.099 16.5515 10.1306 16.3841 10.2106C16.2166 10.2907 16.075 10.4162 15.9753 10.5727C15.8756 10.7292 15.8218 10.9106 15.82 11.0962V14.3222C15.8202 14.4646 15.8515 14.6053 15.9116 14.7344C15.9717 14.8635 16.0592 14.978 16.168 15.0699L20.4912 18.7348V26.4478C20.4918 26.5587 20.5143 26.6685 20.5573 26.7707C20.6004 26.873 20.6631 26.9658 20.742 27.0438C20.8209 27.1218 20.9144 27.1836 21.0171 27.2254C21.1199 27.2673 21.2299 27.2886 21.3408 27.288H28.6204C28.7314 27.2886 28.8414 27.2673 28.9441 27.2254C29.0469 27.1836 29.1403 27.1218 29.2192 27.0438C29.2981 26.9658 29.3609 26.873 29.4039 26.7707C29.4469 26.6685 29.4694 26.5587 29.47 26.4478V18.3491C29.467 17.7629 29.3486 17.1829 29.1213 16.6424C28.8941 16.102 28.5626 15.6116 28.1457 15.1993C27.7288 14.787 27.2348 14.461 26.6919 14.2397C26.1489 14.0185 25.5677 13.9064 24.9814 13.9099Z" fill="#49DF0B"/>
<path id="Path 276" d="M8.53885 10.3696C8.54647 9.66 8.34301 8.96418 7.95431 8.37049C7.56562 7.77681 7.00924 7.31205 6.35584 7.03525C5.70245 6.75846 4.98152 6.68212 4.28464 6.81593C3.58777 6.94974 2.94639 7.28766 2.44198 7.78677C1.93756 8.28588 1.59288 8.92365 1.45172 9.61908C1.31055 10.3145 1.37927 11.0362 1.64914 11.6925C1.91902 12.3488 2.37787 12.91 2.96741 13.305C3.55696 13.6999 4.25059 13.9107 4.96019 13.9106C5.90402 13.9146 6.81087 13.544 7.48177 12.8801C8.15268 12.2163 8.53284 11.3134 8.53885 10.3696Z" fill="#49DF0B"/>
<path id="Path 277" d="M28.5601 10.3696C28.5677 9.66013 28.3643 8.96444 27.9757 8.37082C27.5872 7.77721 27.031 7.31245 26.3778 7.03556C25.7246 6.75868 25.0038 6.68215 24.307 6.8157C23.6102 6.94926 22.9688 7.28687 22.4643 7.78567C21.9598 8.28446 21.6148 8.92194 21.4733 9.61716C21.3318 10.3124 21.4001 11.034 21.6695 11.6903C21.9388 12.3466 22.3972 12.9081 22.9863 13.3034C23.5755 13.6988 24.2688 13.9101 24.9783 13.9106C25.9226 13.9154 26.8303 13.5452 27.5019 12.8812C28.1735 12.2173 28.5541 11.3139 28.5601 10.3696Z" fill="#49DF0B"/>
</g>
</g>
<defs>
<clipPath id="clip0_1_173">
<rect width="29" height="29" fill="white" transform="translate(0.470016 0.25)"/>
</clipPath>
</defs>
</svg>
