<svg width="30" height="30" viewBox="0 0 30 30" fill="none" xmlns="http://www.w3.org/2000/svg">
<g id="SVG" clip-path="url(#clip0_1_189)">
<g id="money2">
<g id="Group 568">
<g id="Group 564">
<path id="Path 288" d="M23.327 16.3872C23.0023 16.1327 19.6038 12.3607 18.6862 11.8288V2.04375C18.6863 1.80809 18.64 1.57471 18.5499 1.35696C18.4598 1.13921 18.3276 0.941374 18.1609 0.774767C17.9943 0.608159 17.7964 0.476053 17.5786 0.386007C17.3608 0.295962 17.1274 0.249745 16.8918 0.250001H7.65157C7.41596 0.24983 7.18263 0.29611 6.96492 0.386194C6.74722 0.476278 6.54941 0.608398 6.38281 0.774997C6.21621 0.941595 6.0841 1.1394 5.99401 1.35711C5.90393 1.57481 5.85765 1.80814 5.85782 2.04375V19.1753C5.8579 19.4107 5.90437 19.6438 5.99457 19.8613C6.08477 20.0788 6.21693 20.2764 6.3835 20.4428C6.55007 20.6092 6.7478 20.7411 6.96537 20.8311C7.18295 20.921 7.41612 20.9672 7.65157 20.9671H11.6781L11.5125 19.5584C11.4592 19.511 11.4235 19.4818 11.3702 19.4344H9.59339C9.67164 19.1289 9.66908 18.8083 9.58597 18.504C9.50286 18.1998 9.34206 17.9224 9.11934 17.6991C8.89663 17.4758 8.61966 17.3142 8.31565 17.2303C8.01163 17.1464 7.69102 17.143 7.3853 17.2205V3.88685C7.4947 3.90585 7.60547 3.91584 7.71651 3.91673C8.19879 3.91673 8.66131 3.72514 9.00233 3.38412C9.34335 3.0431 9.53493 2.58058 9.53493 2.0983C9.53378 1.99115 9.52379 1.88428 9.50506 1.77878H15.0253C15.0066 1.88428 14.9966 1.99115 14.9954 2.0983C14.9948 2.33727 15.0414 2.574 15.1326 2.79489C15.2238 3.01578 15.3577 3.21648 15.5267 3.38546C15.6957 3.55444 15.8964 3.68836 16.1172 3.77953C16.3381 3.8707 16.5749 3.91733 16.8138 3.91673C16.9249 3.91584 17.0356 3.90585 17.145 3.88685V16.9022V20.6424C16.5969 20.0878 16.1483 19.443 15.8189 18.7363C15.8189 18.7363 15.4753 14.8942 13.5277 14.8942C13.4763 14.8932 13.4249 14.8951 13.3738 14.9C13.3738 14.9 11.8995 15.0241 13.1192 19.2389L13.6641 23.9214C14.085 25.512 14.8693 26.9832 15.9553 28.2193V28.7389C15.9553 28.8739 16.0089 29.0034 16.1044 29.0989C16.1999 29.1944 16.3294 29.2481 16.4644 29.2481H21.9398C22.0644 29.248 22.1846 29.2021 22.2774 29.1191C22.3703 29.0361 22.4293 28.9218 22.4432 28.798C22.638 26.975 23.3965 20.1968 23.8401 19.1668C23.9145 19.005 23.9663 18.8336 23.994 18.6577C24.0949 18.2541 24.0862 17.8309 23.969 17.4318C23.8517 17.0327 23.6301 16.6721 23.327 16.3872Z" fill="#0575FF"/>
</g>
<g id="Group 565">
<path id="Ellipse 125" d="M12.4698 6.09228C13.0713 6.09228 13.5589 5.60467 13.5589 5.00317C13.5589 4.40167 13.0713 3.91406 12.4698 3.91406C11.8683 3.91406 11.3806 4.40167 11.3806 5.00317C11.3806 5.60467 11.8683 6.09228 12.4698 6.09228Z" fill="#0575FF"/>
</g>
<path id="Union 22" d="M8.32568 10.744C8.32526 10.2274 8.42697 9.71581 8.6244 9.23838C8.82184 8.76094 9.11095 8.32778 9.47615 7.96233C9.84136 7.59689 10.2749 7.30643 10.7522 7.10868C11.2295 6.91093 11.7412 6.80924 12.2578 6.80933C13.3015 6.80967 14.3027 7.2245 15.0408 7.96233C15.7788 8.70017 16.1937 9.70038 16.1944 10.744C16.1945 11.2822 16.084 11.8153 15.8703 12.3093C15.6567 12.8032 15.3442 13.2473 14.952 13.6157C14.512 13.3825 14.0211 13.2614 13.5231 13.2631C13.4163 13.2615 13.3095 13.2672 13.2034 13.2796C12.8724 13.32 12.5544 13.4323 12.2718 13.6094C11.9892 13.7865 11.7491 14.0242 11.5684 14.3045C11.5056 14.3954 11.448 14.4896 11.3966 14.5874C10.5248 14.3897 9.74623 13.9018 9.18822 13.2035C8.63021 12.5052 8.32622 11.6379 8.32568 10.744Z" fill="#0575FF"/>
</g>
</g>
</g>
<defs>
<clipPath id="clip0_1_189">
<rect width="29" height="29" fill="white" transform="translate(0.449951 0.25)"/>
</clipPath>
</defs>
</svg>
